{"title":"Karate Kid IV, The Next","uid":5612191,"size":550948910,"categoryP":"video","categoryS":"movies","magnet":"?xt=urn:btih:cf932e7299afd22dab0dfa7abde9a551ed58c1b6&amp;dn=Karate+Kid+IV%2C+The+Next&amp;tr=udp%3A%2F%2Ftracker.openbittorrent.com%3A80&amp;tr=udp%3A%2F%2Fopen.demonii.com%3A1337&amp;tr=udp%3A%2F%2Ftracker.coppersurfer.tk%3A6969&amp;tr=udp%3A%2F%2Fexodus.desync.com%3A6969","seeders":2,"leechers":0,"uploader":"YoCkNeR-BeNzO","files":2,"time":1275924946,"description":"During a commemoration for japanese soldiers fighting in the US Army during World War II Mr. Miyagi meets the widow of his commanding officer. He gets to know her granddaugther Julie, an angry teenager. She is full of pain about the death of her parents during an accident and has lots of problems with her grandmother and her fellow pupils. So Mr. Miyagi decides to teach her Karate to bring her back on the right way.\n\n\nFormat : AVI\nFormat/Info : Audio Video Interleave\nFile size : 525 MiB\nDuration : 1h 42mn\nOverall bit rate : 713 Kbps\nWriting application : MEncoder SVN-r29352(20090610-gcc4.3.3)\nWriting library : MPlayer\n\nVideo\nFormat : avc1\nCodec ID : avc1\nDuration : 1h 42mn\nBit rate : 573 Kbps\nWidth : 480 pixels\nHeight : 360 pixels\nDisplay aspect ratio : 4:3\nFrame rate : 25.000 fps\nBits/(Pixel*Frame) : 0.133\nStream size : 422 MiB (80%)\n\nAudio\nID : 1\nFormat : MPEG Audio\nFormat version : Version 1\nFormat profile : Layer 3\nMode : Joint stereo\nFormat_Settings_ModeExtension : MS Stereo\nCodec ID : 55\nCodec ID/Hint : MP3\nDuration : 1h 42mn\nBit rate mode : Constant\nBit rate : 128 Kbps\nChannel(s) : 2 channels\nSampling rate : 44.1 KHz\nStream size : 94.3 MiB (18%)\nAlignment : Aligned on interleaves\nInterleave, duration : 26 ms (0.65 video frame)\nInterleave, preload duration : 522 ms\nWriting library : LAME3.98","torrent":{"xt":"urn:btih:cf932e7299afd22dab0dfa7abde9a551ed58c1b6","amp;dn":"Karate+Kid+IV%2C+The+Next","amp;tr":["udp%3A%2F%2Ftracker.openbittorrent.com%3A80","udp%3A%2F%2Fopen.demonii.com%3A1337","udp%3A%2F%2Ftracker.coppersurfer.tk%3A6969","udp%3A%2F%2Fexodus.desync.com%3A6969"],"infoHash":"cf932e7299afd22dab0dfa7abde9a551ed58c1b6","infoHashBuffer":{"type":"Buffer","data":[207,147,46,114,153,175,210,45,171,13,250,122,189,233,165,81,237,88,193,182]},"announce":[],"urlList":[]}}